<svg width="158" height="24" viewBox="0 0 158 24" fill="none" xmlns="http://www.w3.org/2000/svg">
<path d="M5.38 23C4.228 23 3.328 22.904 2.68 22.712C2.032 22.52 1.54 22.136 1.204 21.56C0.868 20.984 0.664 20.372 0.592 19.724C0.52 19.052 0.484 18.044 0.484 16.7V2.516H4.768V5.828H10.96V9.5H4.768V17.132C4.768 18.164 4.84 18.812 4.984 19.076C5.128 19.34 5.464 19.472 5.992 19.472H6.496C7.024 19.472 7.36 19.34 7.504 19.076C7.648 18.812 7.72 18.164 7.72 17.132V13.676H11.788V16.7C11.788 18.02 11.74 19.016 11.644 19.688C11.572 20.36 11.368 20.984 11.032 21.56C10.72 22.136 10.228 22.52 9.556 22.712C8.908 22.904 8.008 23 6.856 23H5.38ZM22.9778 23.468C20.1938 23.468 18.1778 22.928 16.9298 21.848C15.6818 20.768 15.0578 19.016 15.0578 16.592V12.884C15.0578 8.012 17.5658 5.576 22.5818 5.576C25.1498 5.576 27.0218 6.176 28.1978 7.376C29.3738 8.552 29.9618 10.448 29.9618 13.064C29.9618 14.072 29.8658 14.996 29.6738 15.836H19.3778V16.484C19.3778 17.828 19.6298 18.716 20.1338 19.148C20.6378 19.58 21.5618 19.796 22.9058 19.796C23.8658 19.796 24.5258 19.712 24.8858 19.544C25.2458 19.352 25.4978 18.968 25.6418 18.392H29.7818C29.4698 20.288 28.8098 21.608 27.8018 22.352C26.8178 23.096 25.2098 23.468 22.9778 23.468ZM19.3778 12.452H25.9298C25.9298 11.252 25.6898 10.4 25.2098 9.896C24.7298 9.392 23.9018 9.14 22.7258 9.14C21.5498 9.14 20.6978 9.38 20.1698 9.86C19.6418 10.34 19.3778 11.132 19.3778 12.236V12.452ZM40.6864 23.468C37.8784 23.42 35.9344 22.88 34.8544 21.848C33.7984 20.792 33.2464 18.896 33.1984 16.16V12.416C33.1984 9.872 33.7384 8.096 34.8184 7.088C35.8984 6.08 37.8544 5.576 40.6864 5.576C43.1824 5.576 44.9224 6.02 45.9064 6.908C46.9144 7.772 47.5024 9.38 47.6704 11.732H43.5304C43.4824 10.748 43.2664 10.088 42.8824 9.752C42.4984 9.416 41.7664 9.248 40.6864 9.248C39.4864 9.248 38.6584 9.452 38.2024 9.86C37.7704 10.268 37.5544 10.988 37.5544 12.02V16.052C37.5544 17.564 37.7704 18.572 38.2024 19.076C38.6344 19.556 39.4984 19.796 40.7944 19.796C41.7544 19.796 42.4144 19.616 42.7744 19.256C43.1584 18.872 43.4104 18.152 43.5304 17.096H47.7784C47.5864 19.424 46.9504 21.068 45.8704 22.028C44.8144 22.988 43.0864 23.468 40.6864 23.468ZM51.181 23V0.68H55.465V5.828H62.197V9.32H65.869V23H61.585V9.68H55.465V23H51.181Z" fill="white"/>
<path d="M74.9382 23.468C73.4022 23.468 72.1782 23.06 71.2662 22.244C70.3542 21.428 69.8742 20.3 69.8262 18.86V18.068C69.8262 16.1 70.3182 14.708 71.3022 13.892C72.3102 13.076 74.1342 12.56 76.7742 12.344L80.0502 12.092V11.192C80.0502 10.352 79.8822 9.8 79.5462 9.536C79.2102 9.272 78.4902 9.14 77.3862 9.14C76.3062 9.14 75.5622 9.272 75.1542 9.536C74.7702 9.8 74.5662 10.34 74.5422 11.156H70.3302C70.4262 9.116 71.0142 7.676 72.0942 6.836C73.1742 5.996 74.9622 5.576 77.4582 5.576C80.1942 5.576 82.0182 5.972 82.9302 6.764C83.8422 7.556 84.2982 9.128 84.2982 11.48V23H80.8062V21.128H80.5182C79.6542 22.016 78.8142 22.628 77.9982 22.964C77.1822 23.3 76.1622 23.468 74.9382 23.468ZM76.0182 19.724C77.5062 19.724 78.8502 19.124 80.0502 17.924V15.44L77.4222 15.692C76.0302 15.812 75.1062 16.028 74.6502 16.34C74.2182 16.628 74.0022 17.18 74.0022 17.996C73.9782 18.596 74.1222 19.04 74.4342 19.328C74.7702 19.592 75.2982 19.724 76.0182 19.724ZM89.2201 23V5.828H100.02V9.32H103.692V23H99.4081V9.68H93.5041V23H89.2201ZM112.766 23.468C111.23 23.468 110.006 23.06 109.094 22.244C108.182 21.428 107.702 20.3 107.654 18.86V18.068C107.654 16.1 108.146 14.708 109.13 13.892C110.138 13.076 111.962 12.56 114.602 12.344L117.878 12.092V11.192C117.878 10.352 117.71 9.8 117.374 9.536C117.038 9.272 116.318 9.14 115.214 9.14C114.134 9.14 113.39 9.272 112.982 9.536C112.598 9.8 112.394 10.34 112.37 11.156H108.158C108.254 9.116 108.842 7.676 109.922 6.836C111.002 5.996 112.79 5.576 115.286 5.576C118.022 5.576 119.846 5.972 120.758 6.764C121.67 7.556 122.126 9.128 122.126 11.48V23H118.634V21.128H118.346C117.482 22.016 116.642 22.628 115.826 22.964C115.01 23.3 113.99 23.468 112.766 23.468ZM113.846 19.724C115.334 19.724 116.678 19.124 117.878 17.924V15.44L115.25 15.692C113.858 15.812 112.934 16.028 112.478 16.34C112.046 16.628 111.83 17.18 111.83 17.996C111.806 18.596 111.95 19.04 112.262 19.328C112.598 19.592 113.126 19.724 113.846 19.724ZM132.304 23.432C130.168 23.432 128.728 23.012 127.984 22.172C127.264 21.308 126.904 19.712 126.904 17.384V5.828H131.188V17.348C131.188 18.308 131.32 18.956 131.584 19.292C131.848 19.604 132.352 19.76 133.096 19.76C133.768 19.76 134.392 19.592 134.968 19.256C135.568 18.92 136.348 18.284 137.308 17.348V5.828H141.592V23H138.136V20.876H137.848C136.744 21.884 135.808 22.568 135.04 22.928C134.272 23.264 133.36 23.432 132.304 23.432ZM151.525 23C150.373 23 149.473 22.904 148.825 22.712C148.177 22.52 147.685 22.136 147.349 21.56C147.013 20.984 146.809 20.372 146.737 19.724C146.665 19.052 146.629 18.044 146.629 16.7V2.516H150.913V5.828H157.105V9.5H150.913V17.132C150.913 18.164 150.985 18.812 151.129 19.076C151.273 19.34 151.609 19.472 152.137 19.472H152.641C153.169 19.472 153.505 19.34 153.649 19.076C153.793 18.812 153.865 18.164 153.865 17.132V13.676H157.933V16.7C157.933 18.02 157.885 19.016 157.789 19.688C157.717 20.36 157.513 20.984 157.177 21.56C156.865 22.136 156.373 22.52 155.701 22.712C155.053 22.904 154.153 23 153.001 23H151.525Z" fill="#FF6900"/>
</svg>
