<svg width="190" height="28" viewBox="0 0 190 28" fill="none" xmlns="http://www.w3.org/2000/svg">
<path d="M6.156 9.468V21.672C6.156 22.872 6.384 23.7 6.84 24.156C7.296 24.612 8.1 24.84 9.252 24.84H11.556V27H8.856C7.08 27 5.76 26.592 4.896 25.776C4.032 24.936 3.6 23.568 3.6 21.672V9.468H0.864V7.344H3.6V2.412H6.156V7.344H11.556V9.468H6.156ZM33.496 16.164C33.496 17.028 33.472 17.688 33.424 18.144H17.116C17.188 19.632 17.548 20.904 18.196 21.96C18.844 23.016 19.696 23.82 20.752 24.372C21.808 24.9 22.96 25.164 24.208 25.164C25.84 25.164 27.208 24.768 28.312 23.976C29.44 23.184 30.184 22.116 30.544 20.772H33.208C32.728 22.692 31.696 24.264 30.112 25.488C28.552 26.688 26.584 27.288 24.208 27.288C22.36 27.288 20.704 26.88 19.24 26.064C17.776 25.224 16.624 24.048 15.784 22.536C14.968 21 14.56 19.212 14.56 17.172C14.56 15.132 14.968 13.344 15.784 11.808C16.6 10.272 17.74 9.096 19.204 8.28C20.668 7.464 22.336 7.056 24.208 7.056C26.08 7.056 27.712 7.464 29.104 8.28C30.52 9.096 31.6 10.2 32.344 11.592C33.112 12.96 33.496 14.484 33.496 16.164ZM30.94 16.092C30.964 14.628 30.664 13.38 30.04 12.348C29.44 11.316 28.612 10.536 27.556 10.008C26.5 9.48 25.348 9.216 24.1 9.216C22.228 9.216 20.632 9.816 19.312 11.016C17.992 12.216 17.26 13.908 17.116 16.092H30.94ZM36.9546 17.172C36.9546 15.132 37.3626 13.356 38.1786 11.844C38.9946 10.308 40.1226 9.132 41.5626 8.316C43.0026 7.476 44.6466 7.056 46.4946 7.056C48.9186 7.056 50.9106 7.656 52.4706 8.856C54.0546 10.056 55.0746 11.688 55.5306 13.752H52.8306C52.4946 12.336 51.7626 11.232 50.6346 10.44C49.5306 9.624 48.1506 9.216 46.4946 9.216C45.1746 9.216 43.9866 9.516 42.9306 10.116C41.8746 10.716 41.0346 11.616 40.4106 12.816C39.8106 13.992 39.5106 15.444 39.5106 17.172C39.5106 18.9 39.8106 20.364 40.4106 21.564C41.0346 22.764 41.8746 23.664 42.9306 24.264C43.9866 24.864 45.1746 25.164 46.4946 25.164C48.1506 25.164 49.5306 24.768 50.6346 23.976C51.7626 23.16 52.4946 22.032 52.8306 20.592H55.5306C55.0746 22.608 54.0546 24.228 52.4706 25.452C50.8866 26.676 48.8946 27.288 46.4946 27.288C44.6466 27.288 43.0026 26.88 41.5626 26.064C40.1226 25.224 38.9946 24.048 38.1786 22.536C37.3626 21 36.9546 19.212 36.9546 17.172ZM69.5447 6.984C71.0327 6.984 72.3647 7.296 73.5407 7.92C74.7407 8.544 75.6767 9.504 76.3487 10.8C77.0447 12.072 77.3927 13.632 77.3927 15.48V27H74.9087V15.768C74.9087 13.632 74.3687 12 73.2887 10.872C72.2327 9.744 70.7807 9.18 68.9327 9.18C67.0367 9.18 65.5247 9.78 64.3967 10.98C63.2687 12.18 62.7047 13.944 62.7047 16.272V27H60.1847V0.36H62.7047V10.692C63.3287 9.516 64.2407 8.604 65.4407 7.956C66.6647 7.308 68.0327 6.984 69.5447 6.984ZM81.2739 16.956C81.2739 14.94 81.6699 13.152 82.4619 11.592C83.2779 10.032 84.3699 8.832 85.7379 7.992C87.1299 7.152 88.6779 6.732 90.3819 6.732C91.8699 6.732 93.1659 7.032 94.2699 7.632C95.3979 8.232 96.2979 8.988 96.9699 9.9V7.056H102.046V27H96.9699V24.084C96.3219 25.02 95.4219 25.8 94.2699 26.424C93.1419 27.024 91.8339 27.324 90.3459 27.324C88.6659 27.324 87.1299 26.892 85.7379 26.028C84.3699 25.164 83.2779 23.952 82.4619 22.392C81.6699 20.808 81.2739 18.996 81.2739 16.956ZM96.9699 17.028C96.9699 15.804 96.7299 14.76 96.2499 13.896C95.7699 13.008 95.1219 12.336 94.3059 11.88C93.4899 11.4 92.6139 11.16 91.6779 11.16C90.7419 11.16 89.8779 11.388 89.0859 11.844C88.2939 12.3 87.6459 12.972 87.1419 13.86C86.6619 14.724 86.4219 15.756 86.4219 16.956C86.4219 18.156 86.6619 19.212 87.1419 20.124C87.6459 21.012 88.2939 21.696 89.0859 22.176C89.9019 22.656 90.7659 22.896 91.6779 22.896C92.6139 22.896 93.4899 22.668 94.3059 22.212C95.1219 21.732 95.7699 21.06 96.2499 20.196C96.7299 19.308 96.9699 18.252 96.9699 17.028ZM118.02 6.768C120.396 6.768 122.316 7.524 123.78 9.036C125.244 10.524 125.976 12.612 125.976 15.3V27H120.936V15.984C120.936 14.4 120.54 13.188 119.748 12.348C118.956 11.484 117.876 11.052 116.508 11.052C115.116 11.052 114.012 11.484 113.196 12.348C112.404 13.188 112.008 14.4 112.008 15.984V27H106.968V7.056H112.008V9.54C112.68 8.676 113.532 8.004 114.564 7.524C115.62 7.02 116.772 6.768 118.02 6.768ZM129.473 16.956C129.473 14.94 129.869 13.152 130.661 11.592C131.477 10.032 132.569 8.832 133.937 7.992C135.329 7.152 136.877 6.732 138.581 6.732C140.069 6.732 141.365 7.032 142.469 7.632C143.597 8.232 144.497 8.988 145.169 9.9V7.056H150.245V27H145.169V24.084C144.521 25.02 143.621 25.8 142.469 26.424C141.341 27.024 140.033 27.324 138.545 27.324C136.865 27.324 135.329 26.892 133.937 26.028C132.569 25.164 131.477 23.952 130.661 22.392C129.869 20.808 129.473 18.996 129.473 16.956ZM145.169 17.028C145.169 15.804 144.929 14.76 144.449 13.896C143.969 13.008 143.321 12.336 142.505 11.88C141.689 11.4 140.813 11.16 139.877 11.16C138.941 11.16 138.077 11.388 137.285 11.844C136.493 12.3 135.845 12.972 135.341 13.86C134.861 14.724 134.621 15.756 134.621 16.956C134.621 18.156 134.861 19.212 135.341 20.124C135.845 21.012 136.493 21.696 137.285 22.176C138.101 22.656 138.965 22.896 139.877 22.896C140.813 22.896 141.689 22.668 142.505 22.212C143.321 21.732 143.969 21.06 144.449 20.196C144.929 19.308 145.169 18.252 145.169 17.028ZM173.996 7.056V27H168.92V24.48C168.272 25.344 167.42 26.028 166.364 26.532C165.332 27.012 164.204 27.252 162.98 27.252C161.42 27.252 160.04 26.928 158.84 26.28C157.64 25.608 156.692 24.636 155.996 23.364C155.324 22.068 154.988 20.532 154.988 18.756V7.056H160.028V18.036C160.028 19.62 160.424 20.844 161.216 21.708C162.008 22.548 163.088 22.968 164.456 22.968C165.848 22.968 166.94 22.548 167.732 21.708C168.524 20.844 168.92 19.62 168.92 18.036V7.056H173.996ZM184.836 11.196V20.844C184.836 21.516 184.992 22.008 185.304 22.32C185.64 22.608 186.192 22.752 186.96 22.752H189.3V27H186.132C181.884 27 179.76 24.936 179.76 20.808V11.196H177.384V7.056H179.76V2.124H184.836V7.056H189.3V11.196H184.836Z" fill="#181818"/>
</svg>
