<svg width="28" height="19" viewBox="0 0 28 19" fill="none" xmlns="http://www.w3.org/2000/svg">
<path d="M4.765 19C3.709 19 2.884 18.912 2.29 18.736C1.696 18.56 1.245 18.208 0.937 17.68C0.629 17.152 0.442 16.591 0.376 15.997C0.31 15.381 0.277 14.457 0.277 13.225V0.223H4.204V3.259H9.88V6.625H4.204V13.621C4.204 14.567 4.27 15.161 4.402 15.403C4.534 15.645 4.842 15.766 5.326 15.766H5.788C6.272 15.766 6.58 15.645 6.712 15.403C6.844 15.161 6.91 14.567 6.91 13.621V10.453H10.639V13.225C10.639 14.435 10.595 15.348 10.507 15.964C10.441 16.58 10.254 17.152 9.946 17.68C9.66 18.208 9.209 18.56 8.593 18.736C7.999 18.912 7.174 19 6.118 19H4.765Z" fill="white"/>
<path d="M14.3293 19V3.259H24.2293V6.46H27.5953V19H23.6683V6.79H18.2563V19H14.3293Z" fill="#FF6900"/>
</svg>
