<svg width="58" height="58" viewBox="0 0 58 58" fill="none" xmlns="http://www.w3.org/2000/svg">
<circle cx="29" cy="29" r="29" fill="#F7F8F2"/>
<path d="M13.156 22.468V34.672C13.156 35.872 13.384 36.7 13.84 37.156C14.296 37.612 15.1 37.84 16.252 37.84H18.556V40H15.856C14.08 40 12.76 39.592 11.896 38.776C11.032 37.936 10.6 36.568 10.6 34.672V22.468H7.864V20.344H10.6V15.412H13.156V20.344H18.556V22.468H13.156ZM33.368 19.768C35.744 19.768 37.664 20.524 39.128 22.036C40.592 23.524 41.324 25.612 41.324 28.3V40H36.284V28.984C36.284 27.4 35.888 26.188 35.096 25.348C34.304 24.484 33.224 24.052 31.856 24.052C30.464 24.052 29.36 24.484 28.544 25.348C27.752 26.188 27.356 27.4 27.356 28.984V40H22.316V20.056H27.356V22.54C28.028 21.676 28.88 21.004 29.912 20.524C30.968 20.02 32.12 19.768 33.368 19.768ZM48.3488 40.252C47.4368 40.252 46.6808 39.976 46.0808 39.424C45.5048 38.848 45.2168 38.14 45.2168 37.3C45.2168 36.46 45.5048 35.764 46.0808 35.212C46.6808 34.636 47.4368 34.348 48.3488 34.348C49.2368 34.348 49.9688 34.636 50.5448 35.212C51.1208 35.764 51.4088 36.46 51.4088 37.3C51.4088 38.14 51.1208 38.848 50.5448 39.424C49.9688 39.976 49.2368 40.252 48.3488 40.252Z" fill="#181818"/>
</svg>
